<svg width="24" height="16" viewBox="0 0 24 16" fill="none" xmlns="http://www.w3.org/2000/svg">
<path fill-rule="evenodd" clip-rule="evenodd" d="M3.29236 2.02628L11.8803 7.35746L20.4683 2.02628C20.381 2.00909 20.29 2 20.1965 2H3.56409C3.4706 2 3.37963 2.00909 3.29236 2.02628ZM21.3846 3.94254L12.5855 9.4048C12.1662 9.66507 11.5944 9.66507 11.1752 9.4048L2.37606 3.94254V13C2.37606 13.5523 2.90796 14 3.56409 14H20.1965C20.8527 14 21.3846 13.5523 21.3846 13V3.94254ZM0 3C0 1.34315 1.5957 0 3.56409 0H20.1965C22.1649 0 23.7606 1.34315 23.7606 3V13C23.7606 14.6569 22.1649 16 20.1965 16H3.56409C1.5957 16 0 14.6569 0 13V3Z" fill="#2575FC"/>
</svg>
