<svg width="188" height="26" viewBox="0 0 188 26" fill="none" xmlns="http://www.w3.org/2000/svg">
<path d="M0.06 26V0.799998H11.868V3.428H3.192V11.672H10.968V14.3H3.192V23.372H11.868V26H0.06ZM16.8956 8H19.7756V8.864C20.5196 8.288 21.4796 8 22.6556 8H22.8716C25.0556 8 26.6156 8.552 27.5516 9.656C28.4396 8.552 29.6756 8 31.2596 8H31.4756C33.4196 8 34.8596 8.456 35.7956 9.368C36.7556 10.28 37.2356 11.744 37.2356 13.76V26H34.1756V13.04C34.1756 12.32 33.9596 11.756 33.5276 11.348C33.1196 10.916 32.5556 10.7 31.8356 10.7H30.8996C30.1556 10.7 29.5916 10.928 29.2076 11.384C28.8476 11.816 28.6436 12.284 28.5956 12.788V26H25.5356V13.04C25.5356 12.32 25.3316 11.756 24.9236 11.348C24.5156 10.916 23.9516 10.7 23.2316 10.7H22.2956C21.5276 10.7 20.9396 10.904 20.5316 11.312C20.1476 11.696 19.9556 12.116 19.9556 12.572V26H16.8956V8ZM53.4258 26C53.1138 26 52.7658 25.904 52.3818 25.712C52.0218 25.52 51.7098 25.256 51.4458 24.92C50.8938 25.64 50.1618 26 49.2498 26H46.7658C44.9418 26 43.6098 25.64 42.7698 24.92C41.9538 24.176 41.5458 22.916 41.5458 21.14V20.42C41.5458 16.7 43.2978 14.84 46.8018 14.84H50.5458V13.04C50.5458 12.296 50.3178 11.72 49.8618 11.312C49.4058 10.904 48.7338 10.7 47.8458 10.7H42.9858V8H47.4858C49.5738 8 51.1098 8.456 52.0938 9.368C53.1018 10.28 53.6058 11.744 53.6058 13.76V22.4C53.6058 22.76 53.7378 23.036 54.0018 23.228C54.2898 23.396 54.7578 23.48 55.4058 23.48V26H53.4258ZM48.8898 23.3C49.6098 23.3 50.0658 23.132 50.2578 22.796C50.4498 22.46 50.5458 22.028 50.5458 21.5V17.54H46.7658C46.1418 17.54 45.6258 17.744 45.2178 18.152C44.8098 18.56 44.6058 19.076 44.6058 19.7V21.5C44.6058 22.124 44.7498 22.58 45.0378 22.868C45.3258 23.156 45.7818 23.3 46.4058 23.3H48.8898ZM59.7159 8H62.5959V8.864C63.3399 8.288 64.2999 8 65.4759 8H66.4119C68.3559 8 69.7959 8.456 70.7319 9.368C71.6919 10.28 72.1719 11.744 72.1719 13.76V26H69.1119V13.04C69.1119 12.32 68.8959 11.756 68.4639 11.348C68.0559 10.916 67.4919 10.7 66.7719 10.7H65.1159C64.3239 10.7 63.7359 10.916 63.3519 11.348C62.9679 11.756 62.7759 12.2 62.7759 12.68V26H59.7159V8ZM86.7151 25.172C85.9231 25.724 84.9631 26 83.8351 26H83.3311C81.3871 26 79.9351 25.544 78.9751 24.632C78.0391 23.72 77.5711 22.256 77.5711 20.24V8H80.6311V20.96C80.6311 21.68 80.8351 22.256 81.2431 22.688C81.6751 23.096 82.2511 23.3 82.9711 23.3H84.1951C84.9631 23.3 85.5271 23.108 85.8871 22.724C86.2711 22.34 86.4871 21.908 86.5351 21.428V8H89.5951V26H86.7151V25.172ZM101.124 26C99.0124 26 97.4644 25.556 96.4804 24.668C95.4964 23.756 95.0044 22.28 95.0044 20.24V13.76C95.0044 11.696 95.4484 10.22 96.3364 9.332C97.2244 8.444 98.7004 8 100.764 8H101.736C103.44 8 104.724 8.48 105.588 9.44C106.476 10.376 106.92 11.756 106.92 13.58V18.26H98.0644V20.96C98.0644 21.704 98.2924 22.28 98.7484 22.688C99.2044 23.096 99.8764 23.3 100.764 23.3H105.768V26H101.124ZM103.932 15.56V12.86C103.932 12.236 103.728 11.72 103.32 11.312C102.912 10.904 102.396 10.7 101.772 10.7H100.404C99.5404 10.7 98.9284 10.904 98.5684 11.312C98.2324 11.696 98.0644 12.272 98.0644 13.04V15.56H103.932ZM115.014 26C114.198 26 113.478 25.712 112.854 25.136C112.254 24.56 111.954 23.648 111.954 22.4V0.799998H115.014V22.22C115.014 22.604 115.11 22.88 115.302 23.048C115.494 23.216 115.818 23.3 116.274 23.3H116.994V26H115.014Z" fill="#2575FC"/>
<path d="M138.585 19.88C138.585 21.92 138.021 23.456 136.893 24.488C135.789 25.496 134.193 26 132.105 26H128.685V23.264H132.465C133.353 23.264 134.073 23 134.625 22.472C135.177 21.944 135.453 21.308 135.453 20.564V3.5H130.017V0.799998H138.585V19.88ZM156.509 20.24C156.509 22.256 156.005 23.72 154.997 24.632C154.013 25.544 152.477 26 150.389 26H149.921C147.833 26 146.285 25.544 145.277 24.632C144.293 23.72 143.801 22.256 143.801 20.24V13.76C143.801 11.744 144.293 10.28 145.277 9.368C146.285 8.456 147.833 8 149.921 8H150.389C152.477 8 154.013 8.456 154.997 9.368C156.005 10.28 156.509 11.744 156.509 13.76V20.24ZM153.449 13.04C153.449 12.296 153.221 11.72 152.765 11.312C152.309 10.904 151.637 10.7 150.749 10.7H149.561C148.673 10.7 148.001 10.904 147.545 11.312C147.089 11.72 146.861 12.296 146.861 13.04V20.96C146.861 21.704 147.089 22.28 147.545 22.688C148.001 23.096 148.673 23.3 149.561 23.3H150.749C151.637 23.3 152.309 23.096 152.765 22.688C153.221 22.28 153.449 21.704 153.449 20.96V13.04ZM171.419 21.5C171.419 23.012 170.951 24.14 170.015 24.884C169.103 25.628 167.771 26 166.019 26H161.375V23.3H166.379C167.027 23.3 167.519 23.168 167.855 22.904C168.191 22.616 168.359 22.208 168.359 21.68V19.772C168.359 18.692 167.843 18.152 166.811 18.152H166.199C164.519 18.152 163.259 17.792 162.419 17.072C161.603 16.328 161.195 15.164 161.195 13.58V12.536C161.195 10.928 161.651 9.776 162.563 9.08C163.475 8.36 164.819 8 166.595 8H170.699V10.7H166.235C165.635 10.7 165.155 10.844 164.795 11.132C164.435 11.396 164.255 11.792 164.255 12.32V13.616C164.255 14.168 164.411 14.576 164.723 14.84C165.059 15.104 165.479 15.236 165.983 15.236H166.487C168.095 15.236 169.319 15.632 170.159 16.424C170.999 17.192 171.419 18.344 171.419 19.88V21.5ZM179.318 5.12L183.062 0.259999H186.986L182.414 5.12H179.318ZM182.054 26C179.942 26 178.394 25.556 177.41 24.668C176.426 23.756 175.934 22.28 175.934 20.24V13.76C175.934 11.696 176.378 10.22 177.266 9.332C178.154 8.444 179.63 8 181.694 8H182.666C184.37 8 185.654 8.48 186.518 9.44C187.406 10.376 187.85 11.756 187.85 13.58V18.26H178.994V20.96C178.994 21.704 179.222 22.28 179.678 22.688C180.134 23.096 180.806 23.3 181.694 23.3H186.698V26H182.054ZM184.862 15.56V12.86C184.862 12.236 184.658 11.72 184.25 11.312C183.842 10.904 183.326 10.7 182.702 10.7H181.334C180.47 10.7 179.858 10.904 179.498 11.312C179.162 11.696 178.994 12.272 178.994 13.04V15.56H184.862Z" fill="white"/>
</svg>
